<svg width="22" height="20" viewBox="0 0 22 20" fill="none" xmlns="http://www.w3.org/2000/svg">
<path d="M1.34915 7.00024H20.3491M8.84915 1.00024L6.84915 7.00024L10.8491 18.5002L14.8491 7.00024L12.8491 1.00024M11.4637 18.2628L20.4224 7.51239C20.5742 7.3302 20.6501 7.2391 20.6791 7.13741C20.7047 7.04775 20.7047 6.95273 20.6791 6.86308C20.6501 6.76139 20.5742 6.67029 20.4224 6.4881L16.089 1.2881C16.0008 1.18229 15.9568 1.12938 15.9027 1.09135C15.8548 1.05765 15.8014 1.03263 15.7449 1.01741C15.681 1.00024 15.6122 1.00024 15.4744 1.00024H6.22385C6.08611 1.00024 6.01725 1.00024 5.95343 1.01741C5.89689 1.03263 5.84346 1.05765 5.79557 1.09135C5.74153 1.12938 5.69744 1.18229 5.60927 1.2881L1.27594 6.48809C1.12411 6.67029 1.04819 6.76139 1.01918 6.86308C0.993606 6.95273 0.993606 7.04775 1.01918 7.13741C1.04819 7.2391 1.12411 7.33019 1.27594 7.51239L10.2346 18.2628C10.4456 18.516 10.5512 18.6427 10.6775 18.6888C10.7883 18.7293 10.9099 18.7293 11.0208 18.6888C11.1471 18.6427 11.2527 18.516 11.4637 18.2628Z" stroke="#CD155E" stroke-width="2" stroke-linecap="round" stroke-linejoin="round"/>
</svg>
