<svg width="24" height="23" viewBox="0 0 24 23" fill="none" xmlns="http://www.w3.org/2000/svg">
<g filter="url(#filter0_d_40000778_1983)">
<path d="M12 14.0002L9 11.0002M12 14.0002C13.3968 13.469 14.7369 12.799 16 12.0002M12 14.0002V19.0002C12 19.0002 15.03 18.4502 16 17.0002C17.08 15.3802 16 12.0002 16 12.0002M9 11.0002C9.53214 9.61968 10.2022 8.29631 11 7.05025C12.1652 5.18723 13.7876 3.6533 15.713 2.59434C17.6384 1.53538 19.8027 0.986619 22 1.00025C22 3.72025 21.22 8.50025 16 12.0002M9 11.0002H4C4 11.0002 4.55 7.97025 6 7.00025C7.62 5.92025 11 7.00025 11 7.00025M4.5 15.5002C3 16.7602 2.5 20.5002 2.5 20.5002C2.5 20.5002 6.24 20.0002 7.5 18.5002C8.21 17.6602 8.2 16.3702 7.41 15.5902C7.02131 15.2193 6.50929 15.0049 5.97223 14.9883C5.43516 14.9717 4.91088 15.154 4.5 15.5002Z" stroke="#CD155E" stroke-width="2" stroke-linecap="round" stroke-linejoin="round" shape-rendering="crispEdges"/>
</g>
<defs>
<filter id="filter0_d_40000778_1983" x="-2.5" y="0" width="29.5" height="29.5002" filterUnits="userSpaceOnUse" color-interpolation-filters="sRGB">
<feFlood flood-opacity="0" result="BackgroundImageFix"/>
<feColorMatrix in="SourceAlpha" type="matrix" values="0 0 0 0 0 0 0 0 0 0 0 0 0 0 0 0 0 0 127 0" result="hardAlpha"/>
<feOffset dy="4"/>
<feGaussianBlur stdDeviation="2"/>
<feComposite in2="hardAlpha" operator="out"/>
<feColorMatrix type="matrix" values="0 0 0 0 0 0 0 0 0 0 0 0 0 0 0 0 0 0 0.25 0"/>
<feBlend mode="normal" in2="BackgroundImageFix" result="effect1_dropShadow_40000778_1983"/>
<feBlend mode="normal" in="SourceGraphic" in2="effect1_dropShadow_40000778_1983" result="shape"/>
</filter>
</defs>
</svg>
