<svg width="19" height="21" viewBox="0 0 19 21" fill="none" xmlns="http://www.w3.org/2000/svg">
<path d="M8.59649 1.70351C8.82397 1.30766 8.93771 1.10973 9.08638 1.04339C9.21604 0.985536 9.36419 0.985536 9.49385 1.04339C9.64252 1.10973 9.75626 1.30766 9.98374 1.70351L11.9389 5.10584C12.0231 5.25238 12.0652 5.32565 12.1243 5.37889C12.1765 5.426 12.2381 5.46156 12.305 5.48324C12.3806 5.50775 12.4651 5.50758 12.6342 5.50724L16.5582 5.4993C17.0148 5.49837 17.2431 5.49791 17.3749 5.59349C17.4898 5.67686 17.5639 5.80516 17.5786 5.94638C17.5955 6.1083 17.4809 6.30576 17.2519 6.7007L15.2829 10.0951C15.1981 10.2413 15.1557 10.3144 15.1392 10.3921C15.1245 10.4609 15.1245 10.532 15.1392 10.6008C15.1557 10.6786 15.1981 10.7517 15.2829 10.8979L17.2519 14.2923C17.4809 14.6872 17.5955 14.8847 17.5786 15.0466C17.5639 15.1878 17.4898 15.3161 17.3749 15.3995C17.2431 15.4951 17.0148 15.4946 16.5582 15.4937L12.6342 15.4857C12.4651 15.4854 12.3806 15.4852 12.305 15.5097C12.2381 15.5314 12.1765 15.567 12.1243 15.6141C12.0652 15.6673 12.0231 15.7406 11.9389 15.8871L9.98374 19.2895C9.75626 19.6853 9.64252 19.8832 9.49385 19.9496C9.36419 20.0074 9.21604 20.0074 9.08638 19.9496C8.93771 19.8832 8.82397 19.6853 8.59649 19.2894L6.64132 15.8871C6.55711 15.7406 6.51501 15.6673 6.45597 15.6141C6.40373 15.567 6.34214 15.5314 6.27523 15.5097C6.1996 15.4852 6.11509 15.4854 5.94608 15.4857L2.022 15.4937C1.56543 15.4946 1.33715 15.4951 1.20537 15.3995C1.09043 15.3161 1.01636 15.1878 1.00163 15.0466C0.984746 14.8847 1.09929 14.6872 1.32837 14.2923L3.29728 10.8979C3.38209 10.7517 3.42449 10.6786 3.44108 10.6008C3.45576 10.532 3.45576 10.4609 3.44108 10.3921C3.42449 10.3144 3.38209 10.2413 3.29728 10.0951L1.32837 6.7007C1.09929 6.30576 0.984746 6.1083 1.00163 5.94638C1.01636 5.80516 1.09043 5.67686 1.20537 5.59349C1.33715 5.49791 1.56543 5.49837 2.022 5.4993L5.94608 5.50724C6.11509 5.50758 6.1996 5.50775 6.27523 5.48324C6.34214 5.46156 6.40373 5.426 6.45597 5.37889C6.51501 5.32565 6.55711 5.25238 6.64132 5.10584L8.59649 1.70351Z" stroke="#CD155E" stroke-width="2" stroke-linecap="round" stroke-linejoin="round"/>
</svg>
