<svg width="50" height="45" viewBox="0 0 50 45" fill="none" xmlns="http://www.w3.org/2000/svg">
<path d="M7.21934 41.644C7.06199 42.4573 7.59378 43.2442 8.40713 43.4016C9.22048 43.5589 10.0074 43.0271 10.1647 42.2138L8.69204 41.9289L7.21934 41.644ZM48.5829 2.98664C49.4038 2.87566 49.9794 2.12018 49.8684 1.29922C49.7574 0.478258 49.0019 -0.0972984 48.181 0.0136768L48.3819 1.50016L48.5829 2.98664ZM2.78603 31.5262C2.35916 30.8163 1.43756 30.5867 0.727577 31.0136C0.0175968 31.4405 -0.211909 32.3621 0.214962 33.0721L1.5005 32.2992L2.78603 31.5262ZM6.97548 41.4053L5.68995 42.1782L5.69067 42.1794L6.97548 41.4053ZM10.592 42.4561L9.97905 41.087L9.9778 41.0876L10.592 42.4561ZM21.5111 39.211C22.2672 38.8725 22.6057 37.9851 22.2672 37.229C21.9287 36.4729 21.0413 36.1344 20.2852 36.4729L20.8981 37.8419L21.5111 39.211ZM8.69204 41.9289C10.1647 42.2138 10.1647 42.2141 10.1646 42.2144C10.1646 42.2144 10.1646 42.2146 10.1646 42.2146C10.1646 42.2146 10.1646 42.2143 10.1647 42.2138C10.1649 42.2127 10.1654 42.2106 10.166 42.2075C10.1672 42.2012 10.1693 42.1907 10.1722 42.1762C10.1781 42.1472 10.1875 42.1018 10.2004 42.041C10.2262 41.9194 10.2663 41.7358 10.3221 41.4962C10.4337 41.0171 10.6076 40.3147 10.8539 39.4375C11.3469 37.6817 12.1279 35.2325 13.2761 32.4736C15.5821 26.9329 19.3224 20.257 25.0826 15.3957L24.1151 14.2493L23.1477 13.103C16.8751 18.3967 12.9038 25.5605 10.5064 31.3209C9.30296 34.2125 8.48434 36.7791 7.96562 38.6265C7.70608 39.5509 7.52112 40.297 7.4003 40.8158C7.33987 41.0753 7.29545 41.2781 7.26573 41.4182C7.25087 41.4882 7.23968 41.5425 7.23201 41.5804C7.22817 41.5993 7.22521 41.6142 7.2231 41.6248C7.22205 41.6301 7.22121 41.6344 7.22059 41.6376C7.22027 41.6392 7.22001 41.6405 7.21981 41.6416C7.2197 41.6421 7.21959 41.6427 7.21953 41.643C7.21943 41.6435 7.21934 41.644 8.69204 41.9289ZM24.1151 14.2493L25.0826 15.3957C36.8951 5.42651 46.2836 3.29745 48.5829 2.98664L48.3819 1.50016L48.181 0.0136768C45.3224 0.400087 35.4008 2.76205 23.1477 13.103L24.1151 14.2493ZM1.5005 32.2992L0.214962 33.0721L5.68995 42.1782L6.97548 41.4053L8.26102 40.6323L2.78603 31.5262L1.5005 32.2992ZM6.97548 41.4053L5.69067 42.1794C6.83293 44.0752 9.21921 44.7163 11.2062 43.8246L10.592 42.4561L9.9778 41.0876C9.27671 41.4022 8.56489 41.1367 8.26029 40.6311L6.97548 41.4053ZM10.592 42.4561L11.2049 43.8251L21.5111 39.211L20.8981 37.8419L20.2852 36.4729L9.97905 41.087L10.592 42.4561Z" fill="#DD266F"/>
</svg>
